<?xml version="1.0" encoding="UTF-8" standalone="no"?>
<!-- Created with Inkscape (http://www.inkscape.org/) -->

<svg
   xmlns:dc="http://purl.org/dc/elements/1.1/"
   xmlns:cc="http://creativecommons.org/ns#"
   xmlns:rdf="http://www.w3.org/1999/02/22-rdf-syntax-ns#"
   xmlns:svg="http://www.w3.org/2000/svg"
   xmlns="http://www.w3.org/2000/svg"
   xmlns:sodipodi="http://sodipodi.sourceforge.net/DTD/sodipodi-0.dtd"
   xmlns:inkscape="http://www.inkscape.org/namespaces/inkscape"
   width="200"
   height="200"
   id="svg16070"
   version="1.1"
   inkscape:version="0.48.4 r9943 custom"
   sodipodi:docname="logo.svg">
  <defs
     id="defs16072" />
  <sodipodi:namedview
     id="base"
     pagecolor="#ffffff"
     bordercolor="#666666"
     borderopacity="1.0"
     inkscape:pageopacity="0.0"
     inkscape:pageshadow="2"
     inkscape:zoom="1.4"
     inkscape:cx="169.15399"
     inkscape:cy="49.288702"
     inkscape:document-units="px"
     inkscape:current-layer="layer1"
     showgrid="false"
     fit-margin-top="0"
     fit-margin-left="0"
     fit-margin-right="0"
     fit-margin-bottom="0"
     inkscape:window-width="1920"
     inkscape:window-height="1032"
     inkscape:window-x="0"
     inkscape:window-y="22"
     inkscape:window-maximized="0" />
  <metadata
     id="metadata16075">
    <rdf:RDF>
      <cc:Work
         rdf:about="">
        <dc:format>image/svg+xml</dc:format>
        <dc:type
           rdf:resource="http://purl.org/dc/dcmitype/StillImage" />
        <dc:title></dc:title>
      </cc:Work>
    </rdf:RDF>
  </metadata>
  <g
     inkscape:label="Layer 1"
     inkscape:groupmode="layer"
     id="layer1"
     transform="translate(-28.57143,-129.50504)">
    <g
       id="g11423"
       transform="translate(-866.42858,-775.71429)">
      <g
         transform="matrix(2.0002734,0,0,2.0003165,88.241487,53.393385)"
         id="g11379"
         inkscape:label="#g7944">
        <rect
           style="color:#000000;fill:#668000;fill-opacity:1;fill-rule:nonzero;stroke:none;stroke-width:1;marker:none;visibility:visible;display:inline;overflow:visible;enable-background:accumulate"
           id="rect11381"
           width="99.984177"
           height="99.984177"
           x="403.32413"
           y="425.84558" />
        <path
           inkscape:connector-curvature="0"
           id="path11413"
           d="m 503.30856,436.82431 c 0,0 -18.141,6.70829 -18.141,6.70829 0,0 -4.2977,0.19472 -4.2977,0.19472 0,0 -16.78445,-3.22375 -16.78445,-3.22375 0,0 -7.04315,0.77089 -7.04315,0.77089 0,0 -9.13251,0.25665 -9.13251,0.25665 0,0 -2.88641,0.86467 -2.88641,0.86467 0,0 -12.1178,9.97157 -12.1178,9.97157 0,0 -0.98738,1.38156 -0.98738,1.38156 0,0 0.38057,0.95457 0.38057,0.95457 0,0 1.65142,0.75158 1.65142,0.75158 0,0 0.42085,0.0809 0.42085,0.0809 0,0 -0.26767,0.76517 -0.26767,0.76517 0,0 2.44464,1.06519 2.44464,1.06519 0,0 0.97668,-0.49881 0.97668,-0.49881 0,0 8.32221,-7.47683 8.32221,-7.47683 0,0 9.11268,0.56503 9.11268,0.56503 0,0 4.64068,1.8309 4.64068,1.8309 l 4.6604,0.70081 c 0,0 -1.13662,0.59902 -1.13662,0.59902 0,0 -12.54767,-0.42228 -12.54767,-0.42228 0,0 -3.09576,0.4015 -3.09576,0.4015 0,0 -0.41771,3.71935 -0.41771,3.71935 0,0 1.07907,0.99354 1.07907,0.99354 0,0 5.33971,1.56657 5.33971,1.56657 0,0 6.45017,0.79569 6.45017,0.79569 0,0 5.06465,0.0205 5.06465,0.0205 0,0 12.63331,2.10232 12.63331,2.10232 0,0 5.18747,-1.20873 5.18747,-1.20873 0,0 3.72918,-2.12 3.72918,-2.12 l 16.76404,-9.46096 -0.002,-12.64966 z"
           style="color:#000000;fill:#ffffff;fill-opacity:1;fill-rule:nonzero;stroke:none;stroke-width:1;marker:none;visibility:visible;display:inline;overflow:visible;enable-background:accumulate"
           sodipodi:nodetypes="cscccscscsscssccccccccscsscccccc" />
      </g>
      <g
         style="fill:#ffffff"
         transform="matrix(3.2058348,0,0,3.1160854,947.16249,991.0403)"
         id="g11415">
        <g
           style="fill:#ffffff"
           id="g11417">
          <line
             style="fill:#ffffff;stroke:#449fdb;stroke-width:0.31639147"
             x1="0"
             y1="0"
             x2="0"
             y2="0"
             opacity=""
             id="line11419" />
        </g>
        <path
           style="fill:#ffffff"
           inkscape:connector-curvature="0"
           d="m 18,26 h 12 l -6,-8 h 4 l -6,-6 h 4 L 20,6 h 4 L 16,0 8,6 h 4 l -6,6 h 4 l -6,6 h 4 l -6,8 h 12 c 0,2 0,6 -2,6 h 8 c -2,0 -2,-4 -2,-6 z"
           id="path11421" />
      </g>
    </g>
  </g>
</svg>
